<svg width="1276" height="501" viewBox="0 0 1276 501" fill="none" xmlns="http://www.w3.org/2000/svg">
<path d="M557.568 229.034C557.568 197.9 535.723 186.996 505.287 186.996H467.802C462.662 186.996 458.514 191.145 458.514 196.285V327.097C458.514 332.237 462.662 336.386 467.802 336.386H468.243C473.383 336.386 477.532 332.237 477.532 327.097V273.237H504.516L537.816 331.686C539.468 334.587 542.552 336.386 545.893 336.386C553.053 336.386 557.532 328.602 553.897 322.434L523.975 271.108C544.241 266.151 557.568 252.31 557.568 229.034ZM477.532 202.416H502.571C525.811 202.416 538.624 209.391 538.624 229.034C538.624 248.676 525.811 257.817 502.571 257.817H477.532V202.416Z" fill="white"/>
<path d="M625.6 223.012C600.121 223.012 575.853 245.188 575.853 281.204C575.853 317.221 599.313 339.102 628.831 339.102C640.947 339.102 650.933 335.798 659.451 331.172C662.828 329.337 663.966 325.078 662.131 321.7C660.332 318.396 656.22 317.037 652.879 318.763C646.344 322.177 639.295 324.197 631.144 324.197C610.07 324.197 595.715 308.997 594.393 285.537H662.645C666.353 285.537 669.437 282.673 669.657 279.001C669.731 277.68 669.767 276.285 669.767 274.889C669.767 243.242 653.833 222.976 625.637 222.976L625.6 223.012ZM594.21 272.136C596.486 250.401 610.364 237.918 625.931 237.918C643.223 237.918 653.209 249.961 653.209 272.136H594.21Z" fill="white"/>
<path d="M749.436 322.581H727.922C713.089 322.581 708.537 317.588 708.537 310.576C708.537 304.518 711.584 300.846 715.586 297.505C720.616 299.929 726.71 301.25 732.07 301.25C754.686 301.25 772.566 286.601 772.566 262.884C772.566 253.448 768.785 245.151 763.571 240.121H779.064C783.03 240.121 786.26 236.89 786.26 232.925C786.26 228.96 783.03 225.729 779.064 225.729H747.674C743.635 224.187 738.128 223.012 732.07 223.012C709.601 223.012 690.547 238.212 690.547 262.407C690.547 275.624 697.559 286.381 704.865 292.108V293.026C699.138 297.065 692.676 304.371 692.676 313.549C692.676 322.728 696.935 328.162 702.589 331.686V332.604C692.419 339.213 686.361 348.134 686.361 357.606C686.361 376.624 705.049 387.271 732.144 387.271C766.325 387.271 788.096 369.575 788.096 349.015C788.096 330.658 775.173 322.581 749.436 322.581ZM732.07 236.56C745.104 236.56 755.567 246.326 755.567 262.407C755.567 278.487 744.81 288.694 732.07 288.694C719.331 288.694 708.537 278.487 708.537 262.407C708.537 246.326 719 236.56 732.07 236.56ZM734.787 374.385C714.705 374.385 702.699 366.895 702.699 355C702.699 348.648 706.077 342.04 713.97 336.459C718.89 337.634 724.14 338.111 728.326 338.111H747.417C761.956 338.111 769.739 341.599 769.739 351.842C769.739 363.371 755.861 374.385 734.751 374.385H734.787Z" fill="white"/>
<path d="M833.475 323.499C830.758 323.499 828.261 321.223 828.261 315.495V183.545C828.261 178.368 824.076 174.183 818.899 174.183C813.723 174.183 809.537 178.368 809.537 183.545V314.137C809.537 330.144 815.301 339.066 829.326 339.066C831.529 339.066 834.099 338.735 836.485 338.258C840.414 337.487 842.984 333.742 842.286 329.814V329.52C841.589 325.922 838.394 323.426 834.723 323.499C834.356 323.499 833.915 323.499 833.475 323.499Z" fill="white"/>
<path d="M909.105 223.012C883.625 223.012 859.357 245.188 859.357 281.204C859.357 317.221 882.818 339.102 912.336 339.102C924.452 339.102 934.438 335.798 942.955 331.172C946.333 329.337 947.471 325.078 945.636 321.7C943.837 318.396 939.725 317.037 936.384 318.763C929.849 322.177 922.799 324.197 914.649 324.197C893.575 324.197 879.22 308.997 877.898 285.537H946.15C949.858 285.537 952.942 282.673 953.162 279.001C953.235 277.68 953.272 276.285 953.272 274.889C953.272 243.242 937.338 222.976 909.142 222.976L909.105 223.012ZM877.714 272.136C879.991 250.401 893.869 237.918 909.435 237.918C926.728 237.918 936.714 249.961 936.714 272.136H877.714Z" fill="white"/>
<path d="M1003.28 309.428C995.826 309.428 989.731 315.303 989.731 323.894C989.731 332.485 995.826 338.065 1003.28 338.065C1010.73 338.065 1016.83 332.191 1016.83 323.894C1016.83 315.596 1010.73 309.428 1003.28 309.428Z" fill="white"/>
<path d="M1056.41 347.758C1056.41 361.195 1053.8 369.493 1042.71 369.493C1041.43 369.493 1040.14 369.383 1038.89 369.199C1035.04 368.612 1031.33 370.888 1030.37 374.669V374.853C1029.27 379.002 1031.88 383.224 1036.07 383.995C1038.67 384.472 1041.57 384.766 1044.73 384.766C1066.8 384.766 1075.09 370.447 1075.09 347.831V234.054C1075.09 228.878 1070.91 224.692 1065.73 224.692C1060.55 224.692 1056.37 228.878 1056.37 234.054V347.758H1056.41Z" fill="white"/>
<path d="M1065.88 177.772C1058.61 177.772 1052.96 182.508 1052.96 189.851C1052.96 197.193 1058.61 201.966 1065.88 201.966C1073.15 201.966 1078.8 196.936 1078.8 189.851C1078.8 182.765 1073.15 177.772 1065.88 177.772Z" fill="white"/>
<path d="M1148.05 272.613C1135.53 267.951 1123.49 263.949 1123.49 253.448C1123.49 245.004 1129.92 237.588 1143.87 237.588C1151.29 237.588 1157.56 240.011 1163.47 243.609C1166.78 245.628 1171.04 244.784 1173.35 241.7C1176.03 238.102 1175 232.962 1171.15 230.722C1163.47 226.207 1154.04 223.012 1143.65 223.012C1119.67 223.012 1105.5 236.707 1105.5 254.403C1105.5 273.054 1123.02 280.69 1138.51 286.381C1150.73 290.934 1163.8 295.963 1163.8 307.345C1163.8 316.78 1156.61 324.527 1142.07 324.527C1131.42 324.527 1123.05 321.076 1115.23 315.752C1111.89 313.476 1107.41 314.1 1104.99 317.331L1104.66 317.735C1102.05 321.223 1102.97 326.142 1106.64 328.492C1116.41 334.734 1128.74 339.103 1141.45 339.103C1167.55 339.103 1181.79 324.16 1181.79 306.207C1181.79 285.133 1164.03 278.634 1148.05 272.613Z" fill="white"/>
<g clip-path="url(#clip0_2007_92)">
<path d="M94.0625 94.3883L268.121 121.986C318.859 130.015 335.918 201.226 295.383 235.756L94.0625 407.311V312.495L236.952 190.871L94.0625 170.732V94.3883Z" fill="#00BB7F"/>
<path d="M209.211 336.934L246.478 407.311H336.317L271.15 284.151L209.211 336.934Z" fill="white"/>
</g>
<defs>
<clipPath id="clip0_2007_92">
<rect width="242.254" height="312.922" fill="white" transform="translate(94.0625 94.3883)"/>
</clipPath>
</defs>
</svg>
