<svg width="1276" height="501" viewBox="0 0 1276 501" fill="none" xmlns="http://www.w3.org/2000/svg">
<path d="M557.568 228.335C557.568 197.201 535.723 186.297 505.287 186.297H467.802C462.662 186.297 458.514 190.446 458.514 195.586V326.398C458.514 331.538 462.662 335.687 467.802 335.687H468.243C473.383 335.687 477.532 331.538 477.532 326.398V272.539H504.516L537.816 330.987C539.468 333.888 542.552 335.687 545.893 335.687C553.053 335.687 557.532 327.903 553.897 321.736L523.975 270.409C544.241 265.453 557.568 251.612 557.568 228.335ZM477.532 201.717H502.571C525.811 201.717 538.624 208.693 538.624 228.335C538.624 247.977 525.811 257.119 502.571 257.119H477.532V201.717Z" fill="#2E4A60"/>
<path d="M625.6 222.313C600.121 222.313 575.853 244.489 575.853 280.505C575.853 316.522 599.313 338.403 628.831 338.403C640.947 338.403 650.933 335.099 659.451 330.473C662.828 328.637 663.966 324.379 662.131 321.001C660.332 317.697 656.22 316.338 652.879 318.064C646.344 321.478 639.295 323.497 631.144 323.497C610.07 323.497 595.715 308.298 594.393 284.837H662.645C666.353 284.837 669.437 281.974 669.657 278.302C669.731 276.981 669.767 275.586 669.767 274.19C669.767 242.543 653.833 222.277 625.637 222.277L625.6 222.313ZM594.21 271.437C596.486 249.702 610.364 237.219 625.931 237.219C643.223 237.219 653.209 249.261 653.209 271.437H594.21Z" fill="#2E4A60"/>
<path d="M749.436 321.882H727.922C713.089 321.882 708.537 316.889 708.537 309.877C708.537 303.819 711.584 300.147 715.586 296.806C720.616 299.23 726.71 300.551 732.07 300.551C754.686 300.551 772.566 285.902 772.566 262.185C772.566 252.749 768.785 244.452 763.571 239.422H779.064C783.03 239.422 786.26 236.191 786.26 232.226C786.26 228.261 783.03 225.03 779.064 225.03H747.674C743.635 223.488 738.128 222.313 732.07 222.313C709.601 222.313 690.547 237.513 690.547 261.708C690.547 274.925 697.559 285.682 704.865 291.409V292.327C699.138 296.366 692.676 303.672 692.676 312.851C692.676 322.029 696.935 327.463 702.589 330.987V331.905C692.419 338.514 686.361 347.435 686.361 356.907C686.361 375.925 705.049 386.572 732.144 386.572C766.325 386.572 788.096 368.876 788.096 348.316C788.096 329.959 775.173 321.882 749.436 321.882ZM732.07 235.861C745.104 235.861 755.567 245.627 755.567 261.708C755.567 277.789 744.81 287.995 732.07 287.995C719.331 287.995 708.537 277.789 708.537 261.708C708.537 245.627 719 235.861 732.07 235.861ZM734.787 373.686C714.705 373.686 702.699 366.196 702.699 354.301C702.699 347.949 706.077 341.341 713.97 335.76C718.89 336.935 724.14 337.412 728.326 337.412H747.417C761.956 337.412 769.739 340.9 769.739 351.143C769.739 362.672 755.861 373.686 734.751 373.686H734.787Z" fill="#2E4A60"/>
<path d="M833.475 322.8C830.758 322.8 828.261 320.524 828.261 314.797V182.846C828.261 177.669 824.076 173.484 818.899 173.484C813.723 173.484 809.537 177.669 809.537 182.846V313.438C809.537 329.446 815.301 338.367 829.326 338.367C831.529 338.367 834.099 338.037 836.485 337.559C840.414 336.788 842.984 333.043 842.286 329.115V328.821C841.589 325.223 838.394 322.727 834.723 322.8C834.356 322.8 833.915 322.8 833.475 322.8Z" fill="#2E4A60"/>
<path d="M909.105 222.313C883.625 222.313 859.357 244.489 859.357 280.505C859.357 316.522 882.818 338.403 912.336 338.403C924.452 338.403 934.438 335.099 942.955 330.473C946.333 328.637 947.471 324.379 945.636 321.001C943.837 317.697 939.725 316.338 936.384 318.064C929.849 321.478 922.799 323.497 914.649 323.497C893.575 323.497 879.22 308.298 877.898 284.837H946.15C949.858 284.837 952.942 281.974 953.162 278.302C953.235 276.981 953.272 275.586 953.272 274.19C953.272 242.543 937.338 222.277 909.142 222.277L909.105 222.313ZM877.714 271.437C879.991 249.702 893.869 237.219 909.435 237.219C926.728 237.219 936.714 249.261 936.714 271.437H877.714Z" fill="#2E4A60"/>
<path d="M1003.28 308.729C995.826 308.729 989.731 314.604 989.731 323.195C989.731 331.786 995.826 337.367 1003.28 337.367C1010.73 337.367 1016.83 331.492 1016.83 323.195C1016.83 314.897 1010.73 308.729 1003.28 308.729Z" fill="#2E4A60"/>
<path d="M1056.41 347.059C1056.41 360.497 1053.8 368.794 1042.71 368.794C1041.43 368.794 1040.14 368.684 1038.89 368.5C1035.04 367.913 1031.33 370.189 1030.37 373.971V374.154C1029.27 378.303 1031.88 382.525 1036.07 383.296C1038.67 383.773 1041.57 384.067 1044.73 384.067C1066.8 384.067 1075.09 369.748 1075.09 347.133V233.356C1075.09 228.179 1070.91 223.993 1065.73 223.993C1060.55 223.993 1056.37 228.179 1056.37 233.356V347.059H1056.41Z" fill="#2E4A60"/>
<path d="M1065.88 177.073C1058.61 177.073 1052.96 181.809 1052.96 189.152C1052.96 196.495 1058.61 201.267 1065.88 201.267C1073.15 201.267 1078.8 196.238 1078.8 189.152C1078.8 182.066 1073.15 177.073 1065.88 177.073Z" fill="#2E4A60"/>
<path d="M1148.05 271.914C1135.53 267.252 1123.49 263.25 1123.49 252.749C1123.49 244.305 1129.92 236.889 1143.87 236.889C1151.29 236.889 1157.56 239.312 1163.47 242.91C1166.78 244.929 1171.04 244.085 1173.35 241.001C1176.03 237.403 1175 232.263 1171.15 230.023C1163.47 225.508 1154.04 222.313 1143.65 222.313C1119.67 222.313 1105.5 236.008 1105.5 253.704C1105.5 272.355 1123.02 279.991 1138.51 285.682C1150.73 290.235 1163.8 295.264 1163.8 306.646C1163.8 316.081 1156.61 323.828 1142.07 323.828C1131.42 323.828 1123.05 320.377 1115.23 315.053C1111.89 312.777 1107.41 313.401 1104.99 316.632L1104.66 317.036C1102.05 320.524 1102.97 325.443 1106.64 327.793C1116.41 334.035 1128.74 338.404 1141.45 338.404C1167.55 338.404 1181.79 323.461 1181.79 305.508C1181.79 284.434 1164.03 277.935 1148.05 271.914Z" fill="#2E4A60"/>
<g clip-path="url(#clip0_2007_91)">
<path d="M94.0625 93.6895L268.121 121.287C318.859 129.317 335.918 200.527 295.383 235.057L94.0625 406.612V311.796L236.952 190.172L94.0625 170.033V93.6895Z" fill="#00BB7F"/>
<path d="M209.211 336.235L246.478 406.612H336.317L271.15 283.452L209.211 336.235Z" fill="#2E4A60"/>
</g>
<defs>
<clipPath id="clip0_2007_91">
<rect width="242.254" height="312.922" fill="white" transform="translate(94.0625 93.6895)"/>
</clipPath>
</defs>
</svg>
