<?xml version="1.0" encoding="utf-8"?>
<svg xmlns="http://www.w3.org/2000/svg" viewBox="0 0 500 500" xmlns:bx="https://boxy-svg.com" width="500px" height="500px">
  <defs>
    <clipPath clipPathUnits="userSpaceOnUse" id="a">
      <path d="M94.36 93.69h312.92v312.92H94.36z"/>
    </clipPath>
  </defs>
  <rect x="125" y="178" width="263" height="48" style="fill: #fff;" rx="11.239" ry="11.239" id="object-0" transform="matrix(0.9999999999999999, 0, 0, 0.9999999999999999, -1.4210854715202004e-14, -1.4210854715202004e-14)"/>
  <rect x="145.735" y="186.482" width="31.784" height="31.784" style="fill: rgb(255, 255, 255); border-radius: 80px;" rx="39.513" ry="39.513" id="object-1" transform="matrix(0.9999999999999999, 0, 0, 0.9999999999999999, -1.4210854715202004e-14, -1.4210854715202004e-14)"/>
  <g clip-path="url(#a)" transform="matrix(0.06344100087881088, 0, 0, 0.06344100087881088, 145.65260314941406, 186.49470520019526)" style="" id="object-2">
    <path d="m147 110 155.1 24.6c45.2 7.1 60.4 70.6 24.3 101.4L147 388.8v-84.5L274.3 196 147 178z" style="fill: rgb(0, 187, 127)"/>
    <path d="m249.6 325.8 33.2 62.7h80l-58-109.7z" style="fill: #3c3c43"/>
  </g>
  <text style="white-space: pre; fill: rgb(0, 187, 127); font-family: Arial, sans-serif; font-size: 19.6px;" x="198.595" y="208.701" id="object-3" transform="matrix(0.9999999999999999, 0, 0, 0.9999999999999999, -1.4210854715202004e-14, -1.4210854715202004e-14)">Regle playground</text>
</svg>