<svg viewBox="0 0 187 187" xmlns="http://www.w3.org/2000/svg"><g fill="#fc5656"><path d="m159.886 26.953c-14.1-14.1-29.162-4.974-38.588 4.452l-89.044 89.047c-9.426 9.425-19.292 23.746-4.452 38.584 14.84 14.843 29.161 4.975 38.585-4.451l89.046-89.045c9.426-9.427 18.552-24.489 4.453-38.587z"/><path d="m74.78 23.306 18.855 18.854 19.192-19.192c1.303-1.306 2.626-2.518 3.957-3.661-2.01-10.14-7.796-19.307-23.158-19.307-15.391 0-21.17 9.203-23.169 19.365 1.437 1.243 2.871 2.489 4.323 3.941z"/><path d="m112.85 163.359-19.18-19.181-18.845 18.843c-1.431 1.432-2.855 2.74-4.273 3.969 2.161 10.337 8.277 19.805 23.11 19.805 14.872 0 20.98-9.519 23.127-19.889-1.319-1.135-2.639-2.248-3.939-3.547z"/><path d="m66.783 69.013h-36.35c-13.328 0-30.433 4.199-30.433 24.137 0 14.877 9.522 20.986 19.894 23.132 1.228-1.418 46.889-47.269 46.889-47.269z"/><path d="m167.469 69.981c-1.15 1.338-46.907 47.305-46.907 47.305h35.834c13.329 0 30.433-3.149 30.433-24.136 0-15.389-9.2-21.171-19.36-23.169z"/><path d="m78.727 57.081 6.494-6.494-18.843-18.846c-9.427-9.425-23.746-19.292-38.586-4.452-10.882 10.882-8.465 21.473-2.693 30.071 1.758-.13 53.628-.279 53.628-.279z"/><path d="m108.605 129.218-6.511 6.511 19.194 19.192c9.426 9.427 24.488 18.551 38.586 4.453 10.52-10.521 8.106-21.571 2.29-30.423-1.872.135-53.559.267-53.559.267z"/></g></svg>