<svg viewBox="0 0 512 512" xmlns="http://www.w3.org/2000/svg"><defs><linearGradient id="a" x1=".41" x2="0" y1=".26" y2=".93"><stop stop-color="#eab308" offset="0"/><stop stop-color="#ca8a04" offset="1"/></linearGradient><linearGradient id="b" x1=".34" x2=".66" y1=".02" y2=".97"><stop stop-color="#fde68a" offset="0"/><stop stop-color="#fbbf24" offset="1"/></linearGradient><linearGradient id="c" y1=".5" y2=".5"><stop stop-color="#7dd3fc" offset="0"/><stop stop-color="#0ea5e9" offset="1"/></linearGradient></defs><path d="M0 0h512v512H0z" fill="none"/><path transform="translate(-592.54 -894.72)" d="M742.27 987.02c-66.7 0-119.12 54.67-121.87 126.41l-2.55 95.47c-3.97 78.65 71.96 105.52 126.94 105.52z" fill="url(#a)"/><path transform="translate(62.42 92.3)" d="M92.62.01h227.27c54.53-.8 95.63 40.1 98.39 93.34l6.14 135.76c.73 67.36-48.12 94.94-104.53 95.33l-227.27 2.93c-58.56.43-93.68-43.7-92.6-98.27l3.8-135.75C7.41 33.53 33.3 1.08 92.62 0" fill="url(#b)"/><path d="M167.82 102.75h213.11c51.13-.75 89.67 37.3 92.25 86.82l5.76 126.3c.69 62.66-45.12 88.32-98.01 88.68l-213.11 2.73c-54.9.4-87.84-40.66-86.82-91.42l3.56-126.29c3.36-55.63 27.64-85.81 83.26-86.82" fill="#111827"/><path transform="translate(365.15 205.36)" d="M27.63 0A27.63 27.63 0 1 1 0 27.63 27.63 27.63 0 0 1 27.63 0" fill="url(#c)"/><path transform="translate(152.03 205.36)" d="M27.63 0A27.63 27.63 0 1 1 0 27.63 27.63 27.63 0 0 1 27.63 0" fill="url(#c)"/></svg>